<svg xmlns="http://www.w3.org/2000/svg" viewBox="0 0 1193.22 324.04">
  <g id="Layer_2" data-name="Layer 2">
    <g id="Layer_1-2" data-name="Layer 1">
      <text transform="translate(361.94 211.65)" style="font-size: 120px;fill: #0f0f0f;font-family: Roboto-Medium, Roboto;font-weight: 500;letter-spacing: -0.0007405598958333333em">F<tspan x="65.83" y="0" style="letter-spacing: 0.010001627604166667em">u</tspan><tspan x="133.71" y="0" style="letter-spacing: 0.0007242838541666667em">r</tspan><tspan x="175.98" y="0" style="letter-spacing: 0.010001627604166667em">culit si Cutit</tspan></text>
      <g>
        <path d="M313.16,135.64l-27.07-27.07-74.51-74.5L188.39,10.88a37.4,37.4,0,0,0-52.75,0L112.45,34.07,36.29,110.23,10.88,135.64a37.4,37.4,0,0,0,0,52.75L36.29,213.8l69.9,69.9,29.45,29.46a37.4,37.4,0,0,0,52.75,0l29.46-29.46,68.24-68.24,27.07-27.07A37.42,37.42,0,0,0,313.16,135.64Z" style="fill: #0f0f0f;fill-rule: evenodd"/>
        <path d="M160.6,40.63a111.07,111.07,0,0,1,25.57,3c1.06.24-.24,25.87,1,52.11.08,1.66-8.1,7.08-8.76,11-.47,2.8,1.13,43.33,1.13,43.33l4.57-.15c.43-1.84-.51-31.82-.45-30.35,0,.53,6.2-.13,6.2.4.06,18.35.15,29.73.15,29.73l5.28.09c-.33-10.71-.53-16.42-.2-29.91,0-.34,3.28-.18,5.83-.09,0,0,.08,24.52.22,30.23,0,.59,4.48.27,4.65.27,0,0,.66-30.54.66-30.72.09-3.94-.87-14.3-.87-14.3-2.37-6-7.91-6.13-7.78-9.47,1-25.19.47-48.58,1.4-48.24a112,112,0,0,1,72.75,105c0,61.8-49.86,111.92-111.32,111.92S49.27,214.35,49.27,152.54A111.93,111.93,0,0,1,125.91,46.17c.93-.31-.12,25.8.26,51.66,0,3.19-6.83,5.62-8.64,10.17-3,7.58-1.55,17.72-1,22.54,2.66,26.12,28.43,26.76,30.93-1.54,1-10.84-.06-19.41-2.08-23.18-2.29-4.27-6.71-4.61-6.77-7.94-.55-27.58-1-54.87.19-55.1A112.36,112.36,0,0,1,160.6,40.63Z" style="fill: #fff;fill-rule: evenodd"/>
        <path d="M232.93,114.13c3.53,104.25-107.54,122.69-149.88,45.24C117.16,267.89,265.34,219.4,232.93,114.13Z" style="fill: #c70511;fill-rule: evenodd"/>
      </g>
    </g>
  </g>
</svg>
